<svg xmlns="http://www.w3.org/2000/svg" width="846.402" height="128.718" viewBox="0 0 846.402 128.718">
  <g id="Group_78" data-name="Group 78" transform="translate(-835.577 -611.787)">
    <g id="Group_77" data-name="Group 77">
      <path id="Path_2044" data-name="Path 2044" d="M1035.932,639.2a33.671,33.671,0,0,0-12.253,2.241,26.437,26.437,0,0,0-9.644,6.381,42,42,0,0,0-7.331,10.67,56.233,56.233,0,0,0-4.555,13.762,82.671,82.671,0,0,0-1.534,16.367,76.413,76.413,0,0,0,2.435,20.023,48.9,48.9,0,0,0,6.991,15.54,31.3,31.3,0,0,0,10.911,9.937,30.927,30.927,0,0,0,32.492-2.582q7.784-6.028,11.985-17.245,4.163-11.183,4.166-26.6a72.824,72.824,0,0,0-2.291-18.683,49.935,49.935,0,0,0-6.553-15.149,33.657,33.657,0,0,0-10.351-10.23,27.825,27.825,0,0,0-14.468-4.434m-1.852-2.63a70.358,70.358,0,0,1,25.576,4.482A56.971,56.971,0,0,1,1079.8,654.11a53.368,53.368,0,0,1,11.156,16.222,45.478,45.478,0,0,1-4.042,44.186,55.611,55.611,0,0,1-21.606,18.753,65.364,65.364,0,0,1-29.911,6.917,69.115,69.115,0,0,1-23.382-3.92,61.015,61.015,0,0,1-19.29-11.107,52.02,52.02,0,0,1-13.008-16.734,44.868,44.868,0,0,1-4.676-19.974,45.423,45.423,0,0,1,8.062-25.842,57.033,57.033,0,0,1,21.6-19A62.556,62.556,0,0,1,1034.08,636.573Z" fill="#e7ddd0"/>
      <path id="Path_2045" data-name="Path 2045" d="M1509.955,733.976c-1.73,1.023-4.48,1.536-8.233,1.536h-1.506v2.776h47.476v-2.905a18.525,18.525,0,0,1-5.414-1.042,14.693,14.693,0,0,1-5.383-3.822,28.487,28.487,0,0,1-4.312-6.723l-40.067-87.223h-2.631L1458.2,708.3q-7.2,16.221-14.759,22.069a26.04,26.04,0,0,1-5.824,3.555,21.5,21.5,0,0,1-4.324,1.176v3.183H1469.5v-2.9a17.2,17.2,0,0,1-2.708-.416,14.142,14.142,0,0,1-3.457-1.532,12.481,12.481,0,0,1-4.749-4.848,13.02,13.02,0,0,1-1.826-6.506,19.81,19.81,0,0,1,1.582-7.647l3.214-7.429h42.235l1.633,3.654a19.955,19.955,0,0,1,.925,1.926c.293.658.513,1.142.658,1.412,2.312,5.016,3.822,8.452,4.532,10.376a14.777,14.777,0,0,1,1.02,4.846A5.137,5.137,0,0,1,1509.955,733.976Zm-47.181-29.594,19.536-44.427,20.047,44.427Z" fill="#e7ddd0"/>
      <path id="Path_2046" data-name="Path 2046" d="M1315.379,692.254a34.679,34.679,0,0,0-11.058-7.334c-4.311-1.848-11.205-3.993-20.605-6.43l-5.579-1.411-3.483-.877a23.69,23.69,0,0,1-3.507-.927c-6.285-1.508-11.156-2.8-14.664-3.846a55.2,55.2,0,0,1-8.548-3.217,19.959,19.959,0,0,1-5.115-3.408,11.558,11.558,0,0,1-3.849-8.649,12.765,12.765,0,0,1,1.366-5.48,18.751,18.751,0,0,1,3.626-5.138,20.955,20.955,0,0,1,7.844-4.847,31.6,31.6,0,0,1,10.571-1.633,59.972,59.972,0,0,1,15.664,2.1,57.753,57.753,0,0,1,13.979,5.772,40.334,40.334,0,0,1,10.376,8.524q5.64,6.794,10.054,18.875h2.661v-33.8H1312.6c-1.6,5.481-4.259,8.207-7.986,8.207-1.463,0-4.262-1.021-8.354-3.068q-17.465-9.1-33.735-9.085a50.527,50.527,0,0,0-19.634,3.7A32.2,32.2,0,0,0,1229.13,650.6a24.3,24.3,0,0,0-4.919,14.907,20.128,20.128,0,0,0,4.408,12.568,26.536,26.536,0,0,0,7.112,6.7,60.068,60.068,0,0,0,11.3,5.285q6.432,2.483,23.115,6.992l7.138,1.924q8.766,2.339,13.808,4.066a58.581,58.581,0,0,1,8.211,3.335,21.381,21.381,0,0,1,5.161,3.584,13.528,13.528,0,0,1,4.361,9.766,14.514,14.514,0,0,1-3.216,9.206,20.8,20.8,0,0,1-8.96,6.334,33.742,33.742,0,0,1-12.666,2.289,53.519,53.519,0,0,1-16.394-2.776,70.674,70.674,0,0,1-16.54-7.82,59.013,59.013,0,0,1-12.934-10.861,42.279,42.279,0,0,1-9.346-18.78H1225.7V739.9h2.484a12.967,12.967,0,0,1,4.675-7.6,13.9,13.9,0,0,1,8.6-2.657,21.87,21.87,0,0,1,5.649.8,90.371,90.371,0,0,1,8.7,3.118,93.23,93.23,0,0,0,14.882,5.091,58.5,58.5,0,0,0,13.033,1.391,53.521,53.521,0,0,0,17.658-2.7,32.792,32.792,0,0,0,13.005-8.137,26.909,26.909,0,0,0,6.285-9.087,25.886,25.886,0,0,0,2.217-10.3,24.287,24.287,0,0,0-1.95-9.719A23.7,23.7,0,0,0,1315.379,692.254Z" fill="#e7ddd0"/>
      <path id="Path_2047" data-name="Path 2047" d="M1150.109,696.794h.038l-18.128-39.784a20.674,20.674,0,0,1-2.072-8.137,6.553,6.553,0,0,1,2.778-5.628,12.823,12.823,0,0,1,7.623-2h3.725v-2.63h-52.8v2.63h1.434c7.211,0,13.13,4.969,17.685,14.906l38.606,84.178,2.344.172,9.26-20.837-1.389-3.03Z" fill="#e7ddd0"/>
      <path id="Path_2048" data-name="Path 2048" d="M908.15,693.277v2.734c11.006.525,16.574,6.486,16.574,18.017v5.141q0,8.106-7.062,12.981a31.488,31.488,0,0,1-9.768,4.019,49.289,49.289,0,0,1-12.13,1.533,39.932,39.932,0,0,1-8.989-.973,31,31,0,0,1-8.111-3.02,29.612,29.612,0,0,1-6.624-4.847,32.49,32.49,0,0,1-5.042-6.5,28.79,28.79,0,0,1-2.338-5.868,75.53,75.53,0,0,1-1.8-7.357c-.462-2.51-.851-5.361-1.12-8.6q-.441-4.86-.438-9.794,0-16.475,2.678-26.914,2.667-10.411,8.6-16.342a25.241,25.241,0,0,1,9.353-5.7,32.956,32.956,0,0,1,11.618-2.144,44.741,44.741,0,0,1,21.946,5.919,51.64,51.64,0,0,1,17.66,16.147,49.074,49.074,0,0,1,4.554,8.114,98.092,98.092,0,0,1,3.486,9.249H944.5l-.654-39.868h-2.633a30.247,30.247,0,0,1-5.6,6.65,8.129,8.129,0,0,1-5.189,2.071q-2.557,0-8.913-3.215a82.842,82.842,0,0,0-15.59-6.09,55.832,55.832,0,0,0-14.516-1.9,55,55,0,0,0-14.859,2.071,63.083,63.083,0,0,0-14.125,5.847,58.465,58.465,0,0,0-12.229,9.279,54.836,54.836,0,0,0-7.989,10.424,48,48,0,0,0-4.92,11.888,49.719,49.719,0,0,0-1.7,12.959,47.152,47.152,0,0,0,4.435,20.263,49.509,49.509,0,0,0,12.42,16.37,57.834,57.834,0,0,0,18.9,10.739,71.276,71.276,0,0,0,23.43,3.775,56.145,56.145,0,0,0,11.206-.947,104.1,104.1,0,0,0,12.325-3.753,50.339,50.339,0,0,1,7.453-2.607,25.984,25.984,0,0,1,5.82-.609,15.739,15.739,0,0,1,5.969,1,20.917,20.917,0,0,1,5.6,3.995h2.63V714.028q0-9.206,4.459-13.663c2.636-2.638,6.594-4.035,11.726-4.331v-2.757Z" fill="#e7ddd0"/>
      <path id="Path_2049" data-name="Path 2049" d="M1623.708,689.44c14.22-.191,25.526-1.334,37.907-7.1,20.767-10.9,11.016-38-9.5-41.434-14.162-4.068-74.847-1.834-97.533-2.164v2.494c10.248.647,16.586,6.18,16.278,18.133v58.018c.314,11.882-6.076,17.47-16.278,18.132v2.767h54.629V735.7c-23.381-.633-16.4-41.534-17.308-46.223h22.408l34.466,48.812h33.2v-2.747C1661.7,733.637,1634.5,703.161,1623.708,689.44Zm-31.8-2.6v-45.6c19.328.239,60.374-5.109,57.725,22.7C1650.9,693.925,1594.1,686.756,1591.905,686.845Z" fill="#e7ddd0"/>
      <path id="Path_2050" data-name="Path 2050" d="M1331,638.619v38.923h1.841l.01-.048a67.9,67.9,0,0,1,8.842-20.461c7.43-11.131,19.1-15.784,30.982-15.784h6.43v76.14q0,18.125-18.122,18.123h-.877v2.776h57.4v-2.812c-11.651-.19-17.508-6.2-17.508-18.087v-76.14h5.213c11.69,0,23.757,4.726,31.357,15.054a61.584,61.584,0,0,1,9.336,21.239h1.979V638.619Z" fill="#e7ddd0"/>
    </g>
    <path id="Path_2051" data-name="Path 2051" d="M1190.165,611.787h-.463a31.405,31.405,0,0,1-26.736,27.359v.7a31.4,31.4,0,0,1,26.749,27.483h.437a31.3,31.3,0,0,1,27.451-27.606v-.463A31.3,31.3,0,0,1,1190.165,611.787Z" fill="#de6346" fill-rule="evenodd"/>
  </g>
</svg>
